<svg width="44" height="32" viewBox="0 0 44 32" fill="none" xmlns="http://www.w3.org/2000/svg">
<g id="Logo">
<rect id="Rectangle 7416" x="20.4229" y="0.0456543" width="2.86376" height="14.5449" rx="1.43188" fill="#23BD33"/>
<rect id="Rectangle 7417" x="30.5215" y="0.0456543" width="2.86376" height="14.5449" rx="1.43188" fill="#23BD33"/>
<rect id="Rectangle 7418" x="40.6199" y="0.0456543" width="2.86376" height="14.5449" rx="1.43188" fill="#FF3548"/>
<rect id="Rectangle 7419" x="40.6199" y="17.3037" width="2.86376" height="14.5449" rx="1.43188" fill="#0078D7"/>
<rect id="Rectangle 7420" y="17.3037" width="2.86376" height="14.5449" rx="1.43188" fill="#0078D7"/>
<path id="Subtract" fill-rule="evenodd" clip-rule="evenodd" d="M7.27245 14.5906C11.2889 14.5906 14.5449 11.3346 14.5449 7.3181C14.5449 3.30164 11.2889 0.0456543 7.27245 0.0456543C3.25599 0.0456543 0 3.30164 0 7.3181C0 11.3346 3.25599 14.5906 7.27245 14.5906ZM7.27252 11.727C9.70737 11.727 11.6812 9.75313 11.6812 7.31828C11.6812 4.88343 9.70737 2.90959 7.27252 2.90959C4.83767 2.90959 2.86384 4.88343 2.86384 7.31828C2.86384 9.75313 4.83767 11.727 7.27252 11.727Z" fill="#FF3548"/>
<path id="Subtract_2" fill-rule="evenodd" clip-rule="evenodd" d="M12.9931 31.8486C17.0305 31.8486 20.3035 28.5926 20.3035 24.5762C20.3035 20.5597 17.0305 17.3037 12.9931 17.3037C8.95562 17.3037 5.68262 20.5597 5.68262 24.5762C5.68262 28.5926 8.95562 31.8486 12.9931 31.8486ZM12.9929 28.9849C15.4405 28.9849 17.4247 27.0111 17.4247 24.5762C17.4247 22.1414 15.4405 20.1675 12.9929 20.1675C10.5454 20.1675 8.5612 22.1414 8.5612 24.5762C8.5612 27.0111 10.5454 28.9849 12.9929 28.9849Z" fill="#FFBB34"/>
<path id="Subtract_3" fill-rule="evenodd" clip-rule="evenodd" d="M30.4152 31.8486C34.4527 31.8486 37.7257 28.5926 37.7257 24.5762C37.7257 20.5597 34.4527 17.3037 30.4152 17.3037C26.3777 17.3037 23.1047 20.5597 23.1047 24.5762C23.1047 28.5926 26.3777 31.8486 30.4152 31.8486ZM30.4151 28.9849C32.8626 28.9849 34.8468 27.0111 34.8468 24.5762C34.8468 22.1414 32.8626 20.1675 30.4151 20.1675C27.9675 20.1675 25.9833 22.1414 25.9833 24.5762C25.9833 27.0111 27.9675 28.9849 30.4151 28.9849Z" fill="#FFBB34"/>
</g>
</svg>
